<svg width="38" height="38" viewBox="0 0 38 38" fill="none" xmlns="http://www.w3.org/2000/svg">
<path d="M18.5 37.1614C28.7521 37.1614 37 28.9135 37 18.6614C37 8.40923 28.7521 0.161377 18.5 0.161377C8.24786 0.161377 0 8.40923 0 18.6614C0 28.9135 8.24786 37.1614 18.5 37.1614Z" fill="#2775CA"/>
<path d="M23.3291 21.1864C23.3291 18.4885 21.7104 17.5635 18.4729 17.1782C16.1604 16.8698 15.6979 16.2532 15.6979 15.1739C15.6979 14.0946 16.4688 13.401 18.0104 13.401C19.3979 13.401 20.1688 13.8635 20.5541 15.0198C20.6313 15.251 20.8625 15.4051 21.0938 15.4051H22.327C22.6354 15.4051 22.8666 15.1739 22.8666 14.8657V14.7885C22.5582 13.0926 21.1707 11.7823 19.3979 11.6282V9.77817C19.3979 9.46977 19.1666 9.23852 18.7813 9.16138H17.625C17.3166 9.16138 17.0854 9.39263 17.0082 9.77817V11.551C14.6957 11.8594 13.2312 13.401 13.2312 15.3282C13.2312 17.8719 14.7729 18.8739 18.0104 19.2594C20.1687 19.6448 20.8625 20.1073 20.8625 21.3407C20.8625 22.5741 19.7832 23.4219 18.3188 23.4219C16.3145 23.4219 15.6207 22.5739 15.3895 21.4176C15.3125 21.1094 15.0813 20.9551 14.85 20.9551H13.5395C13.2313 20.9551 13 21.1864 13 21.4948V21.5719C13.3082 23.4989 14.5416 24.8864 17.0854 25.2719V27.1219C17.0854 27.4301 17.3166 27.6614 17.702 27.7385H18.8582C19.1666 27.7385 19.3979 27.5073 19.475 27.1219V25.2719C21.7875 24.8864 23.3291 23.2676 23.3291 21.1864Z" fill="white"/>
<path d="M14.9814 29.2883C8.96889 27.1301 5.88549 20.4239 8.12103 14.4883C9.27728 11.2508 11.821 8.78423 14.9814 7.62798C15.2898 7.47388 15.4439 7.24263 15.4439 6.85709V5.77798C15.4439 5.46959 15.2898 5.23834 14.9814 5.16138C14.9042 5.16138 14.7501 5.16138 14.673 5.23834C7.35014 7.55084 3.34174 15.3364 5.65424 22.6592C7.04174 26.9758 10.3564 30.2905 14.673 31.678C14.9814 31.8321 15.2898 31.678 15.3667 31.3696C15.4439 31.2926 15.4439 31.2155 15.4439 31.0614V29.9821C15.4439 29.7508 15.2126 29.4426 14.9814 29.2883ZM23.1523 5.23834C22.8439 5.08423 22.5355 5.23834 22.4585 5.54673C22.3814 5.62388 22.3814 5.70084 22.3814 5.85513V6.93423C22.3814 7.24263 22.6126 7.55084 22.8439 7.70513C28.8564 9.86334 31.9398 16.5696 29.7042 22.5051C28.548 25.7426 26.0042 28.2092 22.8439 29.3655C22.5355 29.5196 22.3814 29.7508 22.3814 30.1364V31.2155C22.3814 31.5239 22.5355 31.7551 22.8439 31.8321C22.921 31.8321 23.0751 31.8321 23.1523 31.7551C30.4751 29.4426 34.4835 21.6571 32.171 14.3342C30.7835 9.94048 27.3917 6.62584 23.1523 5.23834Z" fill="white"/>
<circle cx="18.697" cy="18.5" r="18" fill="#F2F2F2" stroke="#DEDEDE"/>
<path d="M18.6946 5.5L18.5201 6.09251V23.2842L18.6946 23.4583L26.6746 18.7412L18.6946 5.5Z" fill="#343434"/>
<path d="M18.6946 5.5L10.7144 18.7412L18.6946 23.4583V15.1139V5.5Z" fill="#8C8C8C"/>
<path d="M18.6945 24.9693L18.5962 25.0892V31.2131L18.6945 31.5001L26.6794 20.2546L18.6945 24.9693Z" fill="#3C3C3B"/>
<path d="M18.6946 31.5001V24.9693L10.7144 20.2546L18.6946 31.5001Z" fill="#8C8C8C"/>
<path d="M18.6946 23.4582L26.6746 18.7411L18.6946 15.1138V23.4582Z" fill="#141414"/>
<path d="M10.7144 18.7411L18.6946 23.4582V15.1138L10.7144 18.7411Z" fill="#393939"/>
<circle cx="29" cy="29" r="7.5" fill="black" stroke="#363232"/>
<path d="M29.6486 28.0632V24.0271H27.3425C26.5779 24.0271 25.8446 24.3308 25.3039 24.8715C24.7632 25.4122 24.4595 26.1455 24.4595 26.9101C24.4595 27.6747 24.7632 28.4081 25.3039 28.9487C25.8446 29.4894 26.5779 29.7931 27.3425 29.7931H27.919V28.0632H29.6486Z" fill="white"/>
<path d="M30.2252 28.0632H29.6486V29.7932H27.9191V33.8293H30.2252C30.6038 33.8293 30.9787 33.7547 31.3284 33.6098C31.6782 33.4649 31.996 33.2526 32.2638 32.9849C32.5315 32.7171 32.7438 32.3993 32.8887 32.0495C33.0336 31.6998 33.1082 31.3249 33.1082 30.9463C33.1082 30.5677 33.0336 30.1928 32.8887 29.843C32.7438 29.4932 32.5315 29.1754 32.2638 28.9076C31.996 28.6399 31.6782 28.4276 31.3284 28.2827C30.9787 28.1378 30.6038 28.0632 30.2252 28.0632Z" fill="white"/>
</svg>
